# xmcd
#
# Track frame offsets:
#  150
#  624
#  25107
#  66709
#  87611
#  107916
#  131958
#  166309
#  189025
#  206250
#  228576
#  254584
#  282906
#
# Disc length: 3987 seconds
#
# Revision: 1
# Processed by: cddbd v1.5.1PL2 Copyright (c) Steve Scherf et al.
# Submitted via: Collectorz.com_Music_Collector 6.11
#
DISCID=ba0f910d
DTITLE=Various Artist - Blues Harp Meltdown - Vol 3 Legends [CD1)
DYEAR=2006
DGENRE=Blues
TTITLE0=Mark Hummel - Introduction
TTITLE1=Mark Hummel - Where Y'at
TTITLE2=Mark Hummel - City Livin'
TTITLE3=Mark Hummel - My Kind Of Baby
TTITLE4=Mark Hummel - Rollercoaster
TTITLE5=Steve Freund - My Little Playhouse
TTITLE6=Steve Freund - Done You Wrong
TTITLE7=Willie 'Big Eyes' Smith - Hoodoo Man Blues
TTITLE8=Cephas and Wiggins - Piedmont Blues Jam
TTITLE9=Cephas and Wiggins - Big Boss Man
TTITLE10=Cephas and Wiggins - Going To The River
TTITLE11=Cephas and Wiggins - Walkin' Blues
TTITLE12=Cephas and Wiggins - Broke and Hungry
EXTD=
EXTT0=
EXTT1=
EXTT2=
EXTT3=
EXTT4=
EXTT5=
EXTT6=
EXTT7=
EXTT8=
EXTT9=
EXTT10=
EXTT11=
EXTT12=
PLAYORDER=
